<svg width="52" height="51" xmlns="http://www.w3.org/2000/svg" xmlns:xlink="http://www.w3.org/1999/xlink" xml:space="preserve" overflow="hidden"><defs><clipPath id="clip0"><rect x="1192" y="410" width="52" height="51"/></clipPath><clipPath id="clip1"><rect x="1193" y="411" width="50" height="50"/></clipPath><clipPath id="clip2"><rect x="1193" y="411" width="50" height="50"/></clipPath><clipPath id="clip3"><rect x="1193" y="411" width="50" height="50"/></clipPath></defs><g clip-path="url(#clip0)" transform="translate(-1192 -410)"><g clip-path="url(#clip1)"><g clip-path="url(#clip2)"><g clip-path="url(#clip3)"><path d="M1218.01 444.14C1213.52 444.14 1209.87 440.491 1209.87 436.005 1209.87 431.521 1213.52 427.872 1218.01 427.872 1222.49 427.872 1226.14 431.521 1226.14 436.005 1226.14 440.491 1222.49 444.14 1218.01 444.14L1218.01 444.14ZM1218.01 425.789C1212.37 425.789 1207.79 430.372 1207.79 436.005 1207.79 441.64 1212.37 446.223 1218.01 446.223 1223.64 446.223 1228.22 441.64 1228.22 436.005 1228.22 430.372 1223.64 425.789 1218.01 425.789ZM1238.85 439.905 1235.17 439.905C1234.7 439.905 1234.29 440.222 1234.16 440.678 1233.78 442.129 1233.16 443.18 1232.45 444.397 1232.21 444.806 1232.28 445.327 1232.61 445.661L1235.21 448.241 1230.21 453.209 1227.61 450.621C1227.27 450.289 1226.76 450.222 1226.35 450.458L1226.12 450.591C1224.9 451.3 1224.01 451.812 1222.68 452.163 1222.22 452.283 1221.91 452.697 1221.91 453.17L1221.91 456.845 1214.11 456.845 1214.11 453.172C1214.11 452.7 1213.79 452.288 1213.33 452.166 1211.9 451.784 1210.87 451.215 1209.57 450.454 1209.16 450.214 1208.64 450.281 1208.3 450.619L1205.73 453.21 1200.77 448.216 1203.35 445.614C1203.68 445.28 1203.75 444.766 1203.51 444.358L1203.4 444.165C1202.68 442.924 1202.17 442.027 1201.81 440.681 1201.69 440.224 1201.28 439.905 1200.8 439.905L1197.17 439.905 1197.17 432.106 1200.84 432.106C1201.31 432.106 1201.72 431.789 1201.85 431.332 1202.23 429.871 1202.82 428.795 1203.56 427.54 1203.8 427.13 1203.73 426.61 1203.39 426.276L1200.8 423.692 1205.79 418.716 1208.39 421.306C1208.73 421.64 1209.24 421.705 1209.65 421.47L1209.84 421.364C1211.08 420.641 1211.98 420.118 1213.33 419.764 1213.79 419.643 1214.11 419.228 1214.11 418.755L1214.11 415.167 1221.91 415.167 1221.91 418.823C1221.91 419.295 1222.22 419.707 1222.68 419.829 1224 420.183 1224.89 420.706 1226.11 421.428L1226.29 421.534C1226.7 421.778 1227.22 421.71 1227.56 421.369L1230.1 418.796 1235 423.763 1232.44 426.357C1232.11 426.691 1232.04 427.202 1232.28 427.607 1233.01 428.879 1233.59 429.884 1233.96 431.328 1234.08 431.786 1234.5 432.106 1234.97 432.106L1238.85 432.106 1238.85 439.905ZM1238.98 430.023 1235.75 430.023C1235.4 428.982 1234.97 428.132 1234.48 427.257L1236.57 425.135C1237.32 424.379 1237.32 423.149 1236.57 422.392L1231.49 417.239C1230.75 416.489 1229.45 416.489 1228.71 417.239L1226.64 419.328C1225.8 418.834 1224.99 418.397 1223.99 418.053L1223.99 415.036C1223.99 413.959 1223.11 413.083 1222.04 413.083L1213.98 413.083C1212.9 413.083 1212.02 413.959 1212.02 415.036L1212.02 417.981C1211 418.327 1210.17 418.769 1209.3 419.267L1207.17 417.148C1206.41 416.391 1205.18 416.394 1204.42 417.148L1199.24 422.308C1198.87 422.677 1198.66 423.168 1198.66 423.691 1198.66 424.215 1198.87 424.705 1199.24 425.076L1201.36 427.189C1200.86 428.077 1200.41 428.967 1200.06 430.023L1197.04 430.023C1195.96 430.023 1195.08 430.9 1195.08 431.976L1195.08 440.035C1195.08 441.111 1195.96 441.989 1197.04 441.989L1200.03 441.989C1200.38 443.011 1200.81 443.841 1201.31 444.71L1199.2 446.84C1198.44 447.598 1198.44 448.833 1199.2 449.592L1204.34 454.771C1204.71 455.143 1205.2 455.348 1205.73 455.348L1205.73 455.348C1206.25 455.348 1206.74 455.143 1207.11 454.771L1209.22 452.655C1210.12 453.167 1210.99 453.602 1212.02 453.948L1212.02 456.975C1212.02 458.051 1212.9 458.928 1213.98 458.928L1222.04 458.928C1223.11 458.928 1223.99 458.051 1223.99 456.975L1223.99 453.945C1225.01 453.599 1225.84 453.158 1226.7 452.66L1228.83 454.777C1229.59 455.533 1230.83 455.532 1231.59 454.777L1236.77 449.626C1237.14 449.257 1237.35 448.764 1237.35 448.24 1237.35 447.716 1237.14 447.223 1236.77 446.855L1234.65 444.751C1235.14 443.9 1235.59 443.034 1235.94 441.989L1238.98 441.989C1240.05 441.989 1240.93 441.111 1240.93 440.035L1240.93 431.976C1240.93 430.9 1240.05 430.023 1238.98 430.023Z" fill="#FFFFFF" fill-rule="evenodd" fill-opacity="1"/></g></g></g></g></svg>