<svg width="52" height="50" xmlns="http://www.w3.org/2000/svg" xmlns:xlink="http://www.w3.org/1999/xlink" xml:space="preserve" overflow="hidden"><defs><clipPath id="clip0"><rect x="1192" y="412" width="52" height="50"/></clipPath><clipPath id="clip1"><rect x="1193" y="413" width="50" height="49"/></clipPath><clipPath id="clip2"><rect x="1193" y="413" width="50" height="49"/></clipPath><clipPath id="clip3"><rect x="1193" y="413" width="50" height="49"/></clipPath></defs><g clip-path="url(#clip0)" transform="translate(-1192 -412)"><g clip-path="url(#clip1)"><g clip-path="url(#clip2)"><g clip-path="url(#clip3)"><path d="M24.5061 32.4768C20.1104 32.4768 16.5344 28.9008 16.5344 24.5051 16.5344 20.1104 20.1104 16.5344 24.5061 16.5344 28.9018 16.5344 32.4778 20.1104 32.4778 24.5051 32.4778 28.9008 28.9018 32.4768 24.5061 32.4768L24.5061 32.4768ZM24.5061 14.4928C18.9855 14.4928 14.4928 18.9844 14.4928 24.5051 14.4928 30.0268 18.9855 34.5185 24.5061 34.5185 30.0268 34.5185 34.5195 30.0268 34.5195 24.5051 34.5195 18.9844 30.0268 14.4928 24.5061 14.4928ZM44.9289 28.3271 41.3274 28.3271C40.864 28.3271 40.4597 28.6374 40.3403 29.0846 39.9626 30.5066 39.3593 31.5366 38.66 32.7289 38.4252 33.1301 38.4915 33.6405 38.8213 33.9682L41.3652 36.4958 36.4662 41.3652 33.9151 38.8284C33.5875 38.5028 33.0821 38.4374 32.684 38.6692L32.4594 38.7988C31.26 39.494 30.3943 39.9963 29.0876 40.3392 28.6405 40.4577 28.3271 40.8629 28.3271 41.3264L28.3271 44.9279 20.6851 44.9279 20.6851 41.3284C20.6851 40.866 20.3738 40.4618 19.9267 40.3423 18.523 39.9687 17.5104 39.4103 16.2353 38.6651 15.8352 38.4293 15.3248 38.4956 14.996 38.8264L12.4736 41.3662 7.61133 36.4713 10.145 33.9213C10.4686 33.5946 10.534 33.0903 10.3043 32.6912L10.193 32.5013C9.49069 31.2855 8.98231 30.4065 8.63523 29.0876 8.51783 28.6395 8.11154 28.3271 7.64808 28.3271L4.08333 28.3271 4.08333 20.6841 7.68279 20.6841C8.14523 20.6841 8.5505 20.3728 8.66892 19.9256 9.04867 18.4934 9.6285 17.4389 10.3472 16.2088 10.5809 15.8076 10.5156 15.2982 10.1869 14.9705L7.64298 12.4378 12.5379 7.56131 15.0859 10.1001C15.4136 10.4268 15.9189 10.4911 16.318 10.2604L16.4987 10.1563C17.7206 9.44781 18.6026 8.93536 19.9246 8.58827 20.3717 8.46985 20.6851 8.06356 20.6851 7.6001L20.6851 4.08333 28.3271 4.08333 28.3271 7.66646C28.3271 8.1289 28.6374 8.53315 29.0835 8.65258 30.381 8.99967 31.2477 9.51213 32.4451 10.2196L32.6217 10.3237C33.026 10.5626 33.5374 10.4962 33.8672 10.1614L36.3539 7.63992 41.1569 12.5073 38.6488 15.0501C38.3272 15.3768 38.2629 15.878 38.4905 16.2751 39.2071 17.5216 39.7737 18.5067 40.1422 19.9216 40.2606 20.3707 40.6659 20.6841 41.1304 20.6841L44.9289 20.6841 44.9289 28.3271ZM45.0565 18.6425 41.893 18.6425C41.5551 17.6226 41.1284 16.7896 40.6465 15.9321L42.6984 13.8527C43.4293 13.1116 43.4293 11.906 42.6984 11.1638L37.7167 6.11377C36.9909 5.37877 35.7169 5.37877 34.9911 6.11377L32.9719 8.16156C32.1409 7.67769 31.3467 7.24894 30.3688 6.91206L30.3688 3.95573C30.3688 2.90019 29.5103 2.04167 28.4547 2.04167L20.5575 2.04167C19.502 2.04167 18.6435 2.90019 18.6435 3.95573L18.6435 6.84163C17.64 7.18054 16.8264 7.61338 15.974 8.10133L13.8895 6.02496C13.1443 5.28281 11.9325 5.28588 11.1873 6.02496L6.11071 11.0822C5.74831 11.4435 5.54925 11.9244 5.54925 12.4368 5.54925 12.9503 5.74831 13.4311 6.11071 13.7945L8.19117 15.8648C7.70117 16.7355 7.26425 17.6073 6.92125 18.6425L3.95675 18.6425C2.90121 18.6425 2.04167 19.502 2.04167 20.5565L2.04167 28.4547C2.04167 29.5092 2.90121 30.3688 3.95675 30.3688L6.88858 30.3688C7.2275 31.3712 7.65829 32.1838 8.14625 33.0362L6.07294 35.1228C5.3359 35.866 5.3359 37.0767 6.07396 37.8198L11.1148 42.8954C11.4752 43.2599 11.958 43.461 12.4715 43.461L12.4736 43.461C12.987 43.461 13.4689 43.2599 13.8323 42.8954L15.8913 40.8221C16.7774 41.3233 17.6288 41.75 18.6435 42.089L18.6435 45.0555C18.6435 46.11 19.502 46.9696 20.5575 46.9696L28.4547 46.9696C29.5103 46.9696 30.3688 46.11 30.3688 45.0555L30.3688 42.0859C31.3712 41.747 32.1797 41.3152 33.0301 40.8272L35.1167 42.9015C35.8598 43.6427 37.0705 43.6416 37.8158 42.9015L42.8944 37.8535C43.2588 37.4921 43.4599 37.0083 43.4599 36.4948 43.4599 35.9813 43.2588 35.4985 42.8954 35.1381L40.819 33.076C41.2968 32.242 41.7388 31.3937 42.0849 30.3688L45.0565 30.3688C46.1121 30.3688 46.9706 29.5092 46.9706 28.4547L46.9706 20.5565C46.9706 19.502 46.1121 18.6425 45.0565 18.6425Z" fill="#232F3D" fill-rule="evenodd" fill-opacity="1" transform="matrix(1.02041 0 0 1 1193 413)"/></g></g></g></g></svg>