<svg width="50" height="48" xmlns="http://www.w3.org/2000/svg" xmlns:xlink="http://www.w3.org/1999/xlink" xml:space="preserve" overflow="hidden"><defs><clipPath id="clip0"><rect x="278" y="428" width="50" height="48"/></clipPath><clipPath id="clip1"><rect x="279" y="428" width="48" height="48"/></clipPath><clipPath id="clip2"><rect x="279" y="428" width="48" height="48"/></clipPath><clipPath id="clip3"><rect x="279" y="428" width="48" height="48"/></clipPath></defs><g clip-path="url(#clip0)" transform="translate(-278 -428)"><g clip-path="url(#clip1)"><g clip-path="url(#clip2)"><g clip-path="url(#clip3)"><path d="M288 467 318 467 318 437 288 437 288 467ZM325 441 325 439 320 439 320 436C320 435.448 319.552 435 319 435L316 435 316 430 314 430 314 435 310 435 310 430 308 430 308 435 304 435 304 430 302 430 302 435 298 435 298 430 296 430 296 435 292 435 292 430 290 430 290 435 287 435C286.447 435 286 435.448 286 436L286 439 281 439 281 441 286 441 286 445 281 445 281 447 286 447 286 451 281 451 281 453 286 453 286 457 281 457 281 459 286 459 286 463 281 463 281 465 286 465 286 468C286 468.553 286.447 469 287 469L290 469 290 474 292 474 292 469 296 469 296 474 298 474 298 469 302 469 302 474 304 474 304 469 308 469 308 474 310 474 310 469 314 469 314 474 316 474 316 469 319 469C319.552 469 320 468.553 320 468L320 465 325 465 325 463 320 463 320 459 325 459 325 457 320 457 320 453 325 453 325 451 320 451 320 447 325 447 325 445 320 445 320 441 325 441Z" fill="#FF9900" fill-rule="evenodd" fill-opacity="1"/></g></g></g></g></svg>