<svg width="49" height="48" xmlns="http://www.w3.org/2000/svg" xmlns:xlink="http://www.w3.org/1999/xlink" xml:space="preserve" overflow="hidden"><defs><clipPath id="clip0"><rect x="389" y="428" width="49" height="48"/></clipPath><clipPath id="clip1"><rect x="390" y="428" width="48" height="48"/></clipPath><clipPath id="clip2"><rect x="390" y="428" width="48" height="48"/></clipPath><clipPath id="clip3"><rect x="390" y="428" width="48" height="48"/></clipPath></defs><g clip-path="url(#clip0)" transform="translate(-389 -428)"><g clip-path="url(#clip1)"><g clip-path="url(#clip2)"><g clip-path="url(#clip3)"><path d="M394.131 450.96 399.986 450.96 399.986 452.96 394.131 452.96C392.956 452.96 392 452.004 392 450.829L392 432.131C392 430.956 392.956 430 394.131 430L412.829 430C414.004 430 414.96 430.956 414.96 432.131L414.96 438.86 412.96 438.86 412.96 432.131C412.96 432.059 412.902 432 412.829 432L394.131 432C394.059 432 394 432.059 394 432.131L394 450.829C394 450.901 394.059 450.96 394.131 450.96ZM403.737 461.44 411.279 461.44 411.279 463.44 403.737 463.44C402.563 463.44 401.607 462.484 401.607 461.31L401.607 442.61C401.607 441.436 402.563 440.48 403.737 440.48L422.436 440.48C423.61 440.48 424.567 441.436 424.567 442.61L424.567 449.34 422.567 449.34 422.567 442.61C422.567 442.538 422.508 442.48 422.436 442.48L403.737 442.48C403.665 442.48 403.607 442.538 403.607 442.61L403.607 461.31C403.607 461.382 403.665 461.44 403.737 461.44ZM433.85 471.92 414.96 471.85 414.96 453.091C414.96 453.019 415.019 452.96 415.091 452.96L433.789 452.96C433.861 452.96 433.92 453.019 433.92 453.091L433.85 471.92ZM433.789 450.96 415.091 450.96C413.916 450.96 412.96 451.916 412.96 453.091L412.96 471.85C412.96 472.991 413.889 473.92 415.03 473.92L433.85 473.92C434.991 473.92 435.92 472.991 435.92 471.85L435.92 453.091C435.92 451.916 434.964 450.96 433.789 450.96Z" stroke="#000000" stroke-width="1" stroke-linecap="butt" stroke-linejoin="miter" stroke-miterlimit="4" stroke-opacity="1" fill="#FFFFFF" fill-rule="evenodd" fill-opacity="1"/></g></g></g></g></svg>