<svg width="51" height="49" xmlns="http://www.w3.org/2000/svg" xmlns:xlink="http://www.w3.org/1999/xlink" xml:space="preserve" overflow="hidden"><defs><clipPath id="clip0"><rect x="265" y="528" width="51" height="49"/></clipPath><clipPath id="clip1"><rect x="266" y="528" width="49" height="49"/></clipPath><clipPath id="clip2"><rect x="266" y="528" width="49" height="49"/></clipPath><clipPath id="clip3"><rect x="266" y="528" width="49" height="49"/></clipPath></defs><g clip-path="url(#clip0)" transform="translate(-265 -528)"><g clip-path="url(#clip1)"><g clip-path="url(#clip2)"><g clip-path="url(#clip3)"><path d="M281.759 549.968 298.732 549.968 298.732 547.927 281.759 547.927 281.759 549.968ZM281.759 545.554 298.732 545.554 298.732 543.513 281.759 543.513 281.759 545.554ZM281.759 541.028 298.732 541.028 298.732 538.986 281.759 538.986 281.759 541.028ZM281.759 536.671 298.732 536.671 298.732 534.629 281.759 534.629 281.759 536.671ZM279.271 572.93 301.218 572.93 301.218 532.083 279.271 532.083 279.271 572.93ZM301.762 530.042 278.728 530.042C277.902 530.042 277.229 530.714 277.229 531.541L277.229 573.473C277.229 574.3 277.902 574.972 278.728 574.972L301.762 574.972C302.588 574.972 303.259 574.3 303.259 573.473L303.259 531.541C303.259 530.714 302.588 530.042 301.762 530.042Z" fill="#FFFFFF" fill-rule="evenodd" fill-opacity="1"/></g></g></g></g></svg>