<svg width="50" height="50" xmlns="http://www.w3.org/2000/svg" xmlns:xlink="http://www.w3.org/1999/xlink" xml:space="preserve" overflow="hidden"><defs><clipPath id="clip0"><rect x="780" y="410" width="50" height="50"/></clipPath><clipPath id="clip1"><rect x="780" y="411" width="50" height="49"/></clipPath><clipPath id="clip2"><rect x="780" y="411" width="50" height="49"/></clipPath><clipPath id="clip3"><rect x="780" y="411" width="50" height="49"/></clipPath></defs><g clip-path="url(#clip0)" transform="translate(-780 -410)"><g clip-path="url(#clip1)"><g clip-path="url(#clip2)"><g clip-path="url(#clip3)"><path d="M6.15052 44.9167C6.65992 34.7951 14.6949 26.7234 24.5 26.7234 27.8157 26.7234 31.064 27.6564 33.8968 29.4225 39.153 32.7004 42.5208 38.5701 42.8485 44.9167L6.15052 44.9167ZM14.4877 14.1671C14.4877 8.60767 18.9793 4.08333 24.501 4.08333 30.0207 4.08333 34.5113 8.60767 34.5113 14.1671 34.5113 19.7276 30.0207 24.2519 24.501 24.2519 18.9793 24.2519 14.4877 19.7276 14.4877 14.1671ZM34.9768 27.6901C33.2077 26.5866 31.2885 25.7863 29.2959 25.2871 33.5619 23.4169 36.553 19.1396 36.553 14.1671 36.553 7.48169 31.1456 2.04167 24.501 2.04167 17.8534 2.04167 12.446 7.48169 12.446 14.1671 12.446 19.1457 15.4452 23.4281 19.7194 25.2942 10.7647 27.5431 4.08333 35.9333 4.08333 45.9375 4.08333 46.501 4.53965 46.9583 5.10417 46.9583L43.8958 46.9583C44.4593 46.9583 44.9167 46.501 44.9167 45.9375 44.9167 38.5048 41.1079 31.5131 34.9768 27.6901Z" fill="#FFFFFF" fill-rule="evenodd" fill-opacity="1" transform="matrix(1.02041 0 0 1 780 411)"/></g></g></g></g></svg>