<svg width="50" height="51" xmlns="http://www.w3.org/2000/svg" xmlns:xlink="http://www.w3.org/1999/xlink" xml:space="preserve" overflow="hidden"><defs><clipPath id="clip0"><rect x="780" y="410" width="50" height="51"/></clipPath><clipPath id="clip1"><rect x="780" y="411" width="50" height="50"/></clipPath><clipPath id="clip2"><rect x="780" y="411" width="50" height="50"/></clipPath><clipPath id="clip3"><rect x="780" y="411" width="50" height="50"/></clipPath></defs><g clip-path="url(#clip0)" transform="translate(-780 -410)"><g clip-path="url(#clip1)"><g clip-path="url(#clip2)"><g clip-path="url(#clip3)"><path d="M786.276 456.833C786.796 446.505 794.995 438.269 805 438.269 808.383 438.269 811.698 439.221 814.589 441.023 819.952 444.368 823.389 450.357 823.723 456.833L786.276 456.833ZM794.783 425.456C794.783 419.783 799.367 415.167 805.001 415.167 810.633 415.167 815.216 419.783 815.216 425.456 815.216 431.13 810.633 435.747 805.001 435.747 799.367 435.747 794.783 431.13 794.783 425.456ZM815.691 439.255C813.885 438.129 811.927 437.312 809.894 436.803 814.247 434.895 817.299 430.53 817.299 425.456 817.299 418.634 811.781 413.083 805.001 413.083 798.218 413.083 792.7 418.634 792.7 425.456 792.7 430.536 795.76 434.906 800.122 436.81 790.984 439.105 784.167 447.667 784.167 457.875 784.167 458.45 784.632 458.917 785.208 458.917L824.792 458.917C825.367 458.917 825.833 458.45 825.833 457.875 825.833 450.291 821.947 443.156 815.691 439.255Z" fill="#242F3E" fill-rule="evenodd" fill-opacity="1"/></g></g></g></g></svg>